<?xml version="1.0" standalone="no"?>
<!DOCTYPE svg PUBLIC "-//W3C//DTD SVG 20010904//EN"
 "http://www.w3.org/TR/2001/REC-SVG-20010904/DTD/svg10.dtd">
<svg version="1.0" xmlns="http://www.w3.org/2000/svg"
 width="582.000000pt" height="358.000000pt" viewBox="0 0 582.000000 358.000000"
 preserveAspectRatio="xMidYMid meet">
<metadata>
Created by potrace 1.16, written by Peter Selinger 2001-2019
</metadata>
<g transform="translate(0.000000,358.000000) scale(0.100000,-0.100000)"
fill="#000000" stroke="none">
<path d="M2562 2879 c-34 -5 -93 -21 -130 -35 -73 -29 -93 -31 -134 -20 -23 7
-33 3 -59 -23 -24 -25 -30 -37 -25 -57 5 -19 -1 -35 -28 -67 -132 -163 -151
-396 -51 -616 95 -207 321 -415 540 -495 55 -20 75 -39 75 -71 0 -36 56 -113
99 -135 100 -51 244 8 266 110 5 25 11 30 35 30 46 0 180 46 245 85 117 69
221 215 245 344 39 208 -39 431 -215 620 -48 51 -59 69 -57 91 4 34 -27 57
-55 42 -12 -7 -28 -1 -62 23 -112 79 -287 149 -431 171 -105 15 -163 16 -258
3z m227 -19 c122 -13 223 -45 350 -111 112 -58 132 -74 146 -114 8 -23 17 -31
41 -33 58 -6 191 -177 244 -314 117 -303 -8 -594 -297 -693 -38 -13 -86 -26
-108 -30 -39 -6 -41 -5 -53 28 -50 139 -249 167 -329 46 -29 -44 -31 -44 -168
26 -105 54 -179 111 -271 208 -210 220 -269 499 -155 725 36 72 46 80 95 80
48 0 79 28 79 72 0 26 7 34 36 50 53 27 147 52 221 60 36 4 66 8 66 9 1 0 47
-4 103 -9z"/>
<path d="M2673 2705 c-94 -29 -163 -85 -205 -165 -19 -38 -23 -60 -23 -141 0
-90 2 -99 39 -175 73 -148 236 -279 410 -329 121 -35 281 -19 376 38 19 12 44
20 56 19 39 -5 66 29 69 89 2 30 6 86 10 125 28 272 -280 556 -600 553 -49 0
-109 -6 -132 -14z m310 -35 c188 -58 360 -236 386 -400 14 -86 -6 -180 -39
-180 -33 0 -70 -39 -70 -74 0 -28 -6 -35 -44 -53 -183 -90 -436 -21 -608 165
-80 87 -111 156 -116 262 -3 63 0 95 12 123 36 82 131 156 230 177 57 12 175
3 249 -20z"/>
<path d="M2838 2551 c-40 -13 -83 -41 -98 -65 -8 -11 -18 -50 -22 -86 -5 -36
-11 -83 -14 -106 -5 -36 -3 -44 21 -63 16 -12 42 -21 63 -21 19 0 63 -14 98
-31 197 -97 367 30 278 209 -30 61 -80 107 -149 138 -57 25 -138 37 -177 25z
m139 -36 c56 -17 135 -80 159 -127 9 -17 16 -50 17 -75 1 -79 -57 -129 -150
-127 -62 2 -150 41 -144 64 14 52 12 68 -14 98 -19 23 -35 32 -56 32 -24 0
-29 4 -29 25 0 53 37 97 99 115 40 12 63 11 118 -5z"/>
<path d="M880 880 l0 -230 113 0 c186 0 232 26 232 130 0 48 -4 63 -24 84 -14
14 -31 26 -39 26 -12 0 -10 6 7 24 49 52 29 144 -39 178 -27 14 -60 18 -142
18 l-108 0 0 -230z"/>
<path d="M1290 881 l0 -231 55 0 55 0 0 95 c0 52 3 95 8 95 4 0 32 -43 62 -95
l55 -95 127 0 126 0 15 43 14 42 93 0 93 0 15 -42 14 -43 60 0 c44 0 59 3 56
13 -3 6 -40 110 -84 229 l-79 218 -75 0 -75 0 -80 -220 c-44 -121 -83 -220
-86 -220 -7 0 -118 156 -126 177 -3 7 -1 13 5 13 22 0 70 51 76 81 9 46 -9
101 -44 134 -31 29 -33 30 -156 33 l-124 4 0 -231z"/>
<path d="M2180 880 l0 -230 60 0 60 0 0 230 0 230 -60 0 -60 0 0 -230z"/>
<path d="M2390 880 l0 -230 60 0 59 0 3 148 3 147 85 -147 85 -147 73 -1 72 0
0 230 0 230 -60 0 -59 0 -3 -145 -3 -145 -86 142 -85 143 -72 3 -72 3 0 -231z"/>
<path d="M2880 1098 c1 -7 24 -110 53 -228 l52 -215 81 -3 80 -3 34 116 c19
63 37 115 40 115 4 0 22 -51 41 -112 l34 -113 80 -3 80 -3 56 231 56 230 -62
0 -61 0 -39 -162 c-21 -90 -40 -156 -43 -148 -3 8 -24 80 -47 160 l-42 145
-52 3 c-28 2 -51 1 -51 -1 0 -8 -90 -311 -94 -314 -2 -2 -6 6 -9 19 -3 13 -20
85 -37 161 l-32 137 -59 0 c-41 0 -59 -4 -59 -12z"/>
<path d="M3655 894 c-44 -120 -81 -224 -83 -231 -3 -10 12 -13 55 -13 l59 0
14 43 15 42 94 0 94 0 15 -42 14 -43 60 0 c52 0 59 2 54 18 -4 9 -41 111 -84
227 l-78 210 -75 3 -74 3 -80 -217z"/>
<path d="M4050 1104 c0 -4 37 -108 82 -231 l82 -223 67 0 66 0 68 183 c37 100
76 203 86 230 l19 47 -64 0 -64 0 -52 -155 c-28 -85 -55 -155 -59 -155 -3 0
-29 69 -57 153 l-50 152 -62 3 c-34 2 -62 0 -62 -4z"/>
<path d="M4560 880 l0 -230 140 0 140 0 0 50 0 50 -80 0 -80 0 0 40 0 40 70 0
70 0 0 50 0 50 -70 0 -70 0 0 40 0 40 80 0 80 0 0 50 0 50 -140 0 -140 0 0
-230z"/>
</g>
</svg>
